<svg width="127" height="25" viewBox="0 0 127 25" fill="none" xmlns="http://www.w3.org/2000/svg">
<path d="M49.1648 20V18.3594L56.6222 7.66335H49.1222V5.45455H59.8892V7.09517L52.4389 17.7912H59.9318V20H49.1648ZM62.3679 20V9.09091H64.9389V20H62.3679ZM63.6605 7.54261C63.2533 7.54261 62.9029 7.40767 62.6094 7.13778C62.3158 6.86316 62.169 6.53409 62.169 6.15057C62.169 5.76231 62.3158 5.43324 62.6094 5.16335C62.9029 4.88873 63.2533 4.75142 63.6605 4.75142C64.0724 4.75142 64.4228 4.88873 64.7116 5.16335C65.0052 5.43324 65.152 5.76231 65.152 6.15057C65.152 6.53409 65.0052 6.86316 64.7116 7.13778C64.4228 7.40767 64.0724 7.54261 63.6605 7.54261ZM70.1538 5.45455V20H67.5827V5.45455H70.1538ZM75.1413 16.5767L75.1342 13.473H75.5462L79.4666 9.09091H82.4709L77.6484 14.4602H77.1158L75.1413 16.5767ZM72.7976 20V5.45455H75.3686V20H72.7976ZM79.6442 20L76.093 15.0355L77.826 13.2244L82.7195 20H79.6442ZM84.1843 20V9.09091H86.6772V10.9091H86.7908C86.9897 10.2794 87.3306 9.79403 87.8136 9.45312C88.3013 9.10748 88.8576 8.93466 89.4826 8.93466C89.6246 8.93466 89.7833 8.94176 89.9585 8.95597C90.1384 8.96544 90.2875 8.98201 90.4059 9.00568V11.3707C90.297 11.3329 90.1242 11.2997 89.8874 11.2713C89.6554 11.2382 89.4305 11.2216 89.2127 11.2216C88.744 11.2216 88.3226 11.3234 87.9485 11.527C87.5792 11.7259 87.288 12.0028 87.0749 12.358C86.8619 12.7131 86.7553 13.1226 86.7553 13.5866V20H84.1843ZM96.4233 20.2131C95.358 20.2131 94.4347 19.9787 93.6534 19.5099C92.8722 19.0412 92.2661 18.3854 91.8352 17.5426C91.4091 16.6998 91.196 15.715 91.196 14.5881C91.196 13.4612 91.4091 12.474 91.8352 11.6264C92.2661 10.7789 92.8722 10.1207 93.6534 9.65199C94.4347 9.18324 95.358 8.94886 96.4233 8.94886C97.4886 8.94886 98.4119 9.18324 99.1932 9.65199C99.9744 10.1207 100.578 10.7789 101.004 11.6264C101.435 12.474 101.651 13.4612 101.651 14.5881C101.651 15.715 101.435 16.6998 101.004 17.5426C100.578 18.3854 99.9744 19.0412 99.1932 19.5099C98.4119 19.9787 97.4886 20.2131 96.4233 20.2131ZM96.4375 18.1534C97.0152 18.1534 97.4981 17.9948 97.8864 17.6776C98.2746 17.3556 98.5634 16.9247 98.7528 16.3849C98.947 15.8452 99.044 15.2438 99.044 14.581C99.044 13.9134 98.947 13.3097 98.7528 12.7699C98.5634 12.2254 98.2746 11.7921 97.8864 11.4702C97.4981 11.1482 97.0152 10.9872 96.4375 10.9872C95.8456 10.9872 95.3532 11.1482 94.9602 11.4702C94.572 11.7921 94.2808 12.2254 94.0866 12.7699C93.8973 13.3097 93.8026 13.9134 93.8026 14.581C93.8026 15.2438 93.8973 15.8452 94.0866 16.3849C94.2808 16.9247 94.572 17.3556 94.9602 17.6776C95.3532 17.9948 95.8456 18.1534 96.4375 18.1534ZM106.972 20.2202C106.281 20.2202 105.658 20.0971 105.104 19.8509C104.555 19.5999 104.119 19.2306 103.797 18.7429C103.48 18.2552 103.321 17.6539 103.321 16.9389C103.321 16.3234 103.435 15.8144 103.662 15.4119C103.89 15.0095 104.2 14.6875 104.593 14.446C104.986 14.2045 105.428 14.0223 105.921 13.8991C106.418 13.7713 106.932 13.679 107.462 13.6222C108.101 13.5559 108.62 13.4967 109.017 13.4446C109.415 13.3878 109.704 13.3026 109.884 13.1889C110.069 13.0705 110.161 12.8883 110.161 12.642V12.5994C110.161 12.0644 110.002 11.6501 109.685 11.3565C109.368 11.063 108.911 10.9162 108.314 10.9162C107.685 10.9162 107.185 11.0535 106.816 11.3281C106.451 11.6027 106.205 11.9271 106.077 12.3011L103.676 11.9602C103.866 11.2973 104.178 10.7434 104.614 10.2983C105.05 9.84848 105.582 9.51231 106.212 9.28977C106.842 9.0625 107.538 8.94886 108.3 8.94886C108.826 8.94886 109.349 9.01042 109.87 9.13352C110.391 9.25663 110.866 9.46023 111.297 9.74432C111.728 10.0237 112.074 10.4048 112.334 10.8878C112.599 11.3707 112.732 11.9744 112.732 12.6989V20H110.26V18.5014H110.175C110.019 18.8045 109.799 19.0885 109.515 19.3537C109.235 19.6141 108.882 19.8248 108.456 19.9858C108.035 20.142 107.54 20.2202 106.972 20.2202ZM107.64 18.331C108.156 18.331 108.603 18.2292 108.982 18.0256C109.361 17.8172 109.652 17.5426 109.855 17.2017C110.064 16.8608 110.168 16.4891 110.168 16.0866V14.8011C110.087 14.8674 109.95 14.929 109.756 14.9858C109.567 15.0426 109.354 15.0923 109.117 15.1349C108.88 15.1776 108.646 15.2154 108.414 15.2486C108.182 15.2817 107.98 15.3101 107.81 15.3338C107.426 15.3859 107.083 15.4711 106.78 15.5895C106.477 15.7079 106.238 15.8736 106.063 16.0866C105.888 16.295 105.8 16.5649 105.8 16.8963C105.8 17.3698 105.973 17.7273 106.319 17.9688C106.664 18.2102 107.105 18.331 107.64 18.331ZM119.365 20.1918C118.508 20.1918 117.741 19.9716 117.064 19.5312C116.387 19.0909 115.852 18.4517 115.459 17.6136C115.066 16.7756 114.87 15.7576 114.87 14.5597C114.87 13.3475 115.069 12.3248 115.466 11.4915C115.869 10.6534 116.411 10.0213 117.093 9.59517C117.775 9.1643 118.534 8.94886 119.373 8.94886C120.012 8.94886 120.537 9.05777 120.949 9.27557C121.361 9.48864 121.688 9.74669 121.929 10.0497C122.171 10.348 122.358 10.6297 122.49 10.8949H122.597V5.45455H125.175V20H122.647V18.2812H122.49C122.358 18.5464 122.166 18.8281 121.915 19.1264C121.664 19.42 121.333 19.6709 120.921 19.8793C120.509 20.0876 119.99 20.1918 119.365 20.1918ZM120.083 18.0824C120.627 18.0824 121.091 17.9356 121.475 17.642C121.858 17.3437 122.15 16.9295 122.348 16.3991C122.547 15.8688 122.647 15.2509 122.647 14.5455C122.647 13.84 122.547 13.2268 122.348 12.706C122.154 12.1851 121.865 11.7803 121.482 11.4915C121.103 11.2027 120.637 11.0582 120.083 11.0582C119.51 11.0582 119.032 11.2074 118.648 11.5057C118.265 11.804 117.976 12.2159 117.782 12.7415C117.587 13.267 117.49 13.8684 117.49 14.5455C117.49 15.2273 117.587 15.8357 117.782 16.3707C117.98 16.901 118.272 17.3201 118.655 17.6278C119.043 17.9309 119.519 18.0824 120.083 18.0824Z" fill="black"/>
<path d="M0.0204063 0.01471C9.59317 0.00450664 19.1669 -0.0179412 28.7397 0.0269535C27.3602 1.23197 28.7397 0.0269535 28.7397 0.0269535C25.2573 4.34092 17.0477 11.7424 13.1745 15.6921C10.8053 18.0205 8.46978 20.3867 6.32606 22.9273C5.82202 23.5803 5.03942 23.9538 4.22316 23.9997L0 23.9435L4.60374 18.9572C7.30966 16.29 4.60374 18.9572 12.7144 10.9466C14.7887 8.86405 12.7144 10.9466 18.869 4.63069L4.86903 4.54295L0.0204063 0.01471Z" fill="black"/>
<path d="M28.4244 4.74483L30.9568 1.98291C32.369 3.32465 33.3363 5.14492 33.5495 7.09069C33.6689 8.60895 33.7148 10.2456 32.9883 11.6353C32.0547 13.6249 30.3273 15.0462 28.7652 16.5237C31.117 18.9949 28.7652 16.5237 35.8636 24L31.2027 23.9925L28.9346 21.9182C27.4673 20.4938 26.1144 18.9419 24.5012 17.6756C23.9747 17.2369 23.2288 17.2706 22.5881 17.245C20.4015 17.2226 18.2139 17.2736 16.0273 17.2359C17.1171 16.1717 18.2037 15.0809 19.4873 14.2483C20.5719 13.5157 21.9596 13.6504 23.1982 13.5576C24.5757 13.4555 26.0419 13.4596 27.2826 12.7627C28.5448 12.172 29.3315 10.9312 29.8059 9.66907C30.1743 8.29673 30.1361 7.458 29.5402 6.21421C29.4259 5.82955 28.4244 4.74483 28.4244 4.74483V4.74483Z" fill="black"/>
<path d="M13.8597 20.3323L21.4669 20.3133C22.3873 20.2848 23.0627 20.9847 23.6851 21.5561C24.4738 22.3407 25.2789 23.1121 26.0166 23.9457C10.1953 23.9661 26.0166 23.9457 10.1953 23.9661C10.8677 23.0407 11.5575 22.1224 12.3523 21.2969C12.7329 20.9072 13.2985 20.3925 13.8597 20.3323Z" fill="black"/>
</svg>
