<svg
   width="769pt"
   height="701pt"
   viewBox="0 0 769 701"
   version="1.1"
   id="svg8"
   sodipodi:docname="Zilkroad logo alternative.svg"
   inkscape:version="1.1 (c68e22c387, 2021-05-23)"
   xmlns:inkscape="http://www.inkscape.org/namespaces/inkscape"
   xmlns:sodipodi="http://sodipodi.sourceforge.net/DTD/sodipodi-0.dtd"
   xmlns="http://www.w3.org/2000/svg"
   xmlns:svg="http://www.w3.org/2000/svg">
  <defs
     id="defs12" />
  <sodipodi:namedview
     id="namedview10"
     pagecolor="#505050"
     bordercolor="#ffffff"
     borderopacity="1"
     inkscape:pageshadow="0"
     inkscape:pageopacity="0"
     inkscape:pagecheckerboard="1"
     inkscape:document-units="pt"
     showgrid="false"
     inkscape:zoom="1.258872"
     inkscape:cx="493.69595"
     inkscape:cy="425.778"
     inkscape:window-width="1920"
     inkscape:window-height="1018"
     inkscape:window-x="1672"
     inkscape:window-y="-8"
     inkscape:window-maximized="1"
     inkscape:current-layer="svg8" />
  <path
     fill="#e6e7ea"
     opacity="1"
     d="m 182.83,276.1 c 93.82,-0.1 187.65,-0.32 281.47,0.12 -13.52,11.81 0,0 0,0 -34.13,42.28 -114.59,114.82 -152.55,153.53 -23.22,22.82 -46.11,46.01 -67.12,70.91 -4.94,6.4 -12.61,10.06 -20.61,10.51 l -41.39,-0.55 45.12,-48.87 c 26.52,-26.14 0,0 79.49,-78.51 20.33,-20.41 0,0 60.32,-61.9 l -137.21,-0.86 z"
     id="path2"
     sodipodi:nodetypes="cccccccccccc" />
  <path
     fill="#e6e7ea"
     opacity="1"
     d="M 461.23066,322.45886 486.05,295.39 c 13.84,13.15 23.32,30.99 25.41,50.06 1.17,14.88 1.62,30.92 -5.5,44.54 -9.15,19.5 -26.08,33.43 -41.39,47.91 23.05,24.22 0,0 69.56936,73.27382 L 488.46,511.1 466.23,490.77 c -14.38,-13.96 -27.64,-29.17 -43.45,-41.58 -5.16,-4.3 -12.47,-3.97 -18.75,-4.22 -21.43,-0.22 -42.87,0.28 -64.3,-0.09 10.68,-10.43 21.33,-21.12 33.91,-29.28 10.63,-7.18 24.23,-5.86 36.37,-6.77 13.5,-1 27.87,-0.96 40.03,-7.79 12.37,-5.79 20.08,-17.95 24.73,-30.32 3.61,-13.45 3.23569,-21.67017 -2.60431,-33.86017 -1.12,-3.77 -10.93503,-14.40097 -10.93503,-14.40097 z"
     id="path4"
     sodipodi:nodetypes="ccccccccccccccccc" />
  <path
     fill="#e6e7ea"
     opacity="1"
     d="M 318.47319,475.22618 393.03,475.04 c 9.02,-0.28 15.64,6.58 21.74,12.18 7.73,7.69 15.62,15.25 22.85,23.42 -155.06,0.2 0,0 -155.06,0.2 6.59,-9.07 13.35,-18.07 21.14,-26.16 3.73,-3.82 9.27319,-8.86382 14.77319,-9.45382 z"
     id="path6"
     sodipodi:nodetypes="ccccccc" />
</svg>
